<?xml version="1.0" encoding="UTF-8"?>
<svg id="Camada_1" data-name="Camada 1" xmlns="http://www.w3.org/2000/svg" xmlns:xlink="http://www.w3.org/1999/xlink" viewBox="0 0 642.63 211.95">
  <defs>
    <style>
      .cls-1 {
        fill: #2e3c49;
      }

      .cls-2 {
        fill: url(#Gradiente_sem_nome_6);
      }

      .cls-3 {
        fill: url(#Gradiente_sem_nome_6-2);
      }
    </style>
    <linearGradient id="Gradiente_sem_nome_6" data-name="Gradiente sem nome 6" x1="18.24" y1="87" x2="182.56" y2="87" gradientUnits="userSpaceOnUse">
      <stop offset="0" stop-color="#00b7c3"/>
      <stop offset="0" stop-color="#00b7c3"/>
      <stop offset=".19" stop-color="#0d9ba8"/>
      <stop offset=".56" stop-color="#236c7a"/>
      <stop offset=".84" stop-color="#314e5d"/>
      <stop offset="1" stop-color="#374453"/>
    </linearGradient>
    <linearGradient id="Gradiente_sem_nome_6-2" data-name="Gradiente sem nome 6" x1="67.54" y1="158.15" y2="158.15" xlink:href="#Gradiente_sem_nome_6"/>
  </defs>
  <g>
    <polygon class="cls-1" points="236.66 67.23 290.86 67.23 290.86 51.53 219.15 51.53 219.15 160.58 292.84 160.58 292.84 144.89 236.66 144.89 236.66 67.23"/>
    <rect class="cls-1" x="313.15" y="51.54" width="17.51" height="109.05"/>
    <path class="cls-1" d="M511.77,102.75h-33.92v15.53h33.92v13.23h-.05v.15c-3.47,4.46-8.09,8.09-13.88,10.9-5.78,2.81-12.06,4.13-18.83,4.13-11.73,0-21.31-3.8-28.75-11.57-7.44-7.77-11.24-17.68-11.24-29.91v-39.16c-5.61,4.46-10.08,10.24-13.38,17.18-3.31,6.94-4.96,14.54-4.96,22.64,0,16.03,5.62,29.41,16.69,40.15,11.07,10.74,24.91,16.36,41.26,16.36h.37c10.57,0,20.32-2.48,29.41-7.43,9.09-4.96,16.03-11.57,20.82-19.99v-.07h.05v-32.16h-17.51Z"/>
    <polygon class="cls-1" points="568.22 144.89 568.22 67.23 622.41 67.23 622.41 51.53 550.7 51.53 550.7 160.58 624.39 160.58 624.39 144.89 568.22 144.89"/>
    <rect class="cls-1" x="249.91" y="95.32" width="27.56" height="14.87"/>
    <rect class="cls-1" x="581.42" y="95.32" width="27.6" height="14.87"/>
    <path class="cls-1" d="M510.73,82.93h.17s-.04-.05-.07-.08l-.1.08Z"/>
    <path class="cls-1" d="M510.84,82.84l12.62-10.33c-5.12-7.27-11.56-12.89-19.33-16.85-7.77-3.97-16.36-5.95-25.77-5.95s-18.36,2.16-26.04,6.41v18.09c7.38-5.61,16.07-8.47,26.04-8.47,13.51,0,24.39,5.76,32.48,17.1Z"/>
    <path class="cls-1" d="M390.47,66.41c-10.91-10.08-25.28-15.04-43.12-15.04h-3.48v15.86h3.31c12.72,0,22.8,3.47,30.24,10.58,7.44,7.1,11.23,16.36,11.23,27.92s-3.8,20.98-11.23,28.25c-7.44,7.27-17.51,10.9-30.24,10.9h-3.31v15.7h3.48c17.84,0,32.22-5.12,43.12-15.37,10.9-10.24,16.36-23.46,16.36-39.65s-5.45-29.08-16.36-39.16Z"/>
  </g>
  <g>
    <polygon class="cls-2" points="166.13 49.05 51.36 115.31 51.36 77.24 133.26 30.08 100.4 11.11 18.24 58.54 18.24 153.41 34.67 162.9 182.56 77.52 182.56 58.54 166.13 49.05"/>
    <polygon class="cls-3" points="100.4 200.84 100.4 200.84 182.56 153.41 182.56 115.46 67.54 181.87 100.4 200.84"/>
  </g>
</svg>